<svg width="20" height="20" viewBox="0 0 20 20" fill="none" xmlns="http://www.w3.org/2000/svg">
<circle cx="10" cy="10" r="10" fill="white"/>
<path d="M8.432 14.712C8.432 14.712 8.38 14.744 8.276 14.808C8.18 14.864 8.048 14.92 7.88 14.976C7.712 15.032 7.516 15.06 7.292 15.06C7.004 15.06 6.752 14.972 6.536 14.796C6.32 14.62 6.212 14.388 6.212 14.1V9.012H5.312V8.772H6.212V6.6H6.452V8.772H7.952V9.012H6.452V14.1C6.468 14.332 6.56 14.512 6.728 14.64C6.896 14.76 7.084 14.82 7.292 14.82C7.572 14.82 7.808 14.772 8 14.676C8.192 14.58 8.292 14.528 8.3 14.52L8.432 14.712ZM15.8471 8.208H13.2551V15H11.2871V8.208H8.68306V6.48H15.8471V8.208Z" fill="black"/>
</svg>
