<svg width="16" height="16" viewBox="0 0 16 16" fill="none" xmlns="http://www.w3.org/2000/svg">
<path d="M3.13702 0.00390625C1.41355 0.00390625 0.00299072 1.41443 0.00299072 3.13794V12.8634C0.00299072 14.5869 1.41352 15.9969 3.13702 15.9969H12.8625C14.586 15.9969 15.996 14.5869 15.996 12.8634V3.13794C15.996 1.41447 14.586 0.00390625 12.8625 0.00390625H3.13702ZM3.92528 2.64307C4.75165 2.64307 5.26065 3.18557 5.27637 3.89867C5.27637 4.59603 4.75162 5.15378 3.90929 5.15378H3.89379C3.08315 5.15378 2.5592 4.59607 2.5592 3.89867C2.5592 3.18559 3.09901 2.64307 3.92526 2.64307H3.92528ZM11.0466 5.97603C12.6358 5.97603 13.8272 7.01479 13.8272 9.24701V13.4142H11.412V9.5264C11.412 8.54944 11.0624 7.88291 10.1883 7.88291C9.52107 7.88291 9.12334 8.33216 8.94872 8.76615C8.88493 8.92141 8.86925 9.13826 8.86925 9.35546V13.4142H6.454C6.454 13.4142 6.48569 6.82839 6.454 6.14647H8.86974V7.17565C9.1907 6.68045 9.76481 5.97602 11.0466 5.97602V5.97603ZM2.70166 6.14699H5.11691V13.4142H2.70166V6.14699Z" fill="#292929"/>
</svg>
