<svg width="63" height="14" viewBox="0 0 63 14" fill="none" xmlns="http://www.w3.org/2000/svg">
<path d="M3.504 13.06C3.424 13.06 3.36 13.036 3.312 12.988C3.272 12.932 3.252 12.864 3.252 12.784V4.996H0.312C0.248 4.996 0.196 4.976 0.156 4.936C0.116 4.896 0.096 4.84 0.096 4.768C0.096 4.704 0.116 4.652 0.156 4.612C0.196 4.564 0.248 4.54 0.312 4.54H6.684C6.74 4.54 6.792 4.564 6.84 4.612C6.888 4.652 6.912 4.704 6.912 4.768C6.912 4.84 6.888 4.896 6.84 4.936C6.792 4.976 6.74 4.996 6.684 4.996H3.756V12.784C3.756 12.864 3.732 12.932 3.684 12.988C3.644 13.036 3.584 13.06 3.504 13.06ZM14.3518 12.712C14.3758 12.76 14.3878 12.804 14.3878 12.844C14.3878 12.9 14.3638 12.952 14.3158 13C14.2758 13.04 14.2238 13.06 14.1598 13.06C14.0798 13.06 14.0118 13.02 13.9558 12.94L12.3238 10.288C12.0838 9.888 11.8278 9.616 11.5558 9.472C11.2918 9.328 10.9238 9.256 10.4518 9.256H8.65181V12.784C8.65181 12.864 8.62781 12.932 8.57981 12.988C8.53981 13.036 8.48381 13.06 8.41181 13.06C8.33181 13.06 8.26781 13.036 8.21981 12.988C8.17981 12.94 8.15981 12.872 8.15981 12.784V4.804C8.15981 4.732 8.18781 4.672 8.24381 4.624C8.30781 4.568 8.37981 4.54 8.45981 4.54H11.4238C12.2958 4.54 12.9678 4.74 13.4398 5.14C13.9198 5.532 14.1598 6.112 14.1598 6.88C14.1598 7.568 13.9478 8.108 13.5238 8.5C13.1078 8.892 12.5198 9.116 11.7598 9.172C11.9438 9.236 12.1118 9.344 12.2638 9.496C12.4238 9.648 12.5838 9.852 12.7438 10.108L14.3518 12.712ZM11.4358 8.776C12.8998 8.776 13.6318 8.14 13.6318 6.868C13.6318 6.244 13.4518 5.78 13.0918 5.476C12.7318 5.164 12.1798 5.008 11.4358 5.008H8.66381V8.776H11.4358ZM16.5329 13.06C16.4529 13.06 16.3889 13.036 16.3409 12.988C16.3009 12.932 16.2809 12.864 16.2809 12.784V4.756C16.2809 4.676 16.3009 4.612 16.3409 4.564C16.3889 4.508 16.4529 4.48 16.5329 4.48C16.6049 4.48 16.6609 4.508 16.7009 4.564C16.7489 4.612 16.7729 4.676 16.7729 4.756V12.784C16.7729 12.864 16.7489 12.932 16.7009 12.988C16.6609 13.036 16.6049 13.06 16.5329 13.06ZM19.3337 13.06C19.2537 13.06 19.1897 13.036 19.1417 12.988C19.1017 12.94 19.0817 12.872 19.0817 12.784V4.804C19.0817 4.732 19.1097 4.672 19.1657 4.624C19.2297 4.568 19.3017 4.54 19.3817 4.54H22.1297C23.0017 4.54 23.6777 4.748 24.1577 5.164C24.6377 5.58 24.8777 6.172 24.8777 6.94C24.8777 7.708 24.6337 8.304 24.1457 8.728C23.6657 9.152 22.9937 9.364 22.1297 9.364H19.5737V12.784C19.5737 12.872 19.5537 12.94 19.5137 12.988C19.4737 13.036 19.4137 13.06 19.3337 13.06ZM22.1177 8.884C22.8617 8.884 23.4177 8.72 23.7857 8.392C24.1617 8.064 24.3497 7.58 24.3497 6.94C24.3497 6.3 24.1617 5.82 23.7857 5.5C23.4177 5.172 22.8617 5.008 22.1177 5.008H19.5737V8.884H22.1177ZM31.9717 13H29.458V2.91895H25.6699V0.396484H35.751V2.91895H31.9717V13ZM39.6094 13H37.0869V0.396484H39.6094V13ZM44.4785 2.91895V7.96387H47.001C47.3467 7.96387 47.6719 7.89941 47.9766 7.77051C48.2812 7.63574 48.5479 7.4541 48.7764 7.22559C49.0049 6.99707 49.1836 6.73047 49.3125 6.42578C49.4473 6.11523 49.5146 5.78711 49.5146 5.44141C49.5146 5.0957 49.4473 4.77051 49.3125 4.46582C49.1836 4.15527 49.0049 3.88574 48.7764 3.65723C48.5479 3.42871 48.2812 3.25 47.9766 3.12109C47.6719 2.98633 47.3467 2.91895 47.001 2.91895H44.4785ZM44.4785 13H41.9561V0.396484H47.001C47.4639 0.396484 47.9092 0.458008 48.3369 0.581055C48.7646 0.698242 49.1631 0.868164 49.5322 1.09082C49.9072 1.30762 50.2471 1.57129 50.5518 1.88184C50.8623 2.18652 51.126 2.52637 51.3428 2.90137C51.5654 3.27637 51.7354 3.67773 51.8525 4.10547C51.9756 4.5332 52.0371 4.97852 52.0371 5.44141C52.0371 6.13281 51.9053 6.78613 51.6416 7.40137C51.3779 8.01074 51.0176 8.54395 50.5605 9.00098C50.1035 9.45801 49.5674 9.81836 48.9521 10.082C48.3428 10.3457 47.6924 10.4775 47.001 10.4775H44.4785V13ZM52.7842 4.17578C52.7842 3.6543 52.8838 3.16504 53.083 2.70801C53.2822 2.25098 53.5518 1.85254 53.8916 1.5127C54.2373 1.16699 54.6387 0.894531 55.0957 0.695312C55.5527 0.496094 56.042 0.396484 56.5635 0.396484H62.3467V2.91895H56.5635C56.3877 2.91895 56.2236 2.95117 56.0713 3.01562C55.9189 3.08008 55.7842 3.1709 55.667 3.28809C55.5557 3.39941 55.4678 3.53125 55.4033 3.68359C55.3389 3.83594 55.3066 4 55.3066 4.17578C55.3066 4.35156 55.3389 4.51855 55.4033 4.67676C55.4678 4.8291 55.5557 4.96387 55.667 5.08105C55.7842 5.19238 55.9189 5.28027 56.0713 5.34473C56.2236 5.40918 56.3877 5.44141 56.5635 5.44141H59.0859C59.6074 5.44141 60.0967 5.54102 60.5537 5.74023C61.0166 5.93359 61.418 6.20312 61.7578 6.54883C62.1035 6.88867 62.373 7.29004 62.5664 7.75293C62.7656 8.20996 62.8652 8.69922 62.8652 9.2207C62.8652 9.74219 62.7656 10.2314 62.5664 10.6885C62.373 11.1455 62.1035 11.5469 61.7578 11.8926C61.418 12.2324 61.0166 12.502 60.5537 12.7012C60.0967 12.9004 59.6074 13 59.0859 13H53.4873V10.4775H59.0859C59.2617 10.4775 59.4258 10.4453 59.5781 10.3809C59.7305 10.3164 59.8623 10.2285 59.9736 10.1172C60.0908 10 60.1816 9.86523 60.2461 9.71289C60.3105 9.56055 60.3428 9.39648 60.3428 9.2207C60.3428 9.04492 60.3105 8.88086 60.2461 8.72852C60.1816 8.57617 60.0908 8.44434 59.9736 8.33301C59.8623 8.21582 59.7305 8.125 59.5781 8.06055C59.4258 7.99609 59.2617 7.96387 59.0859 7.96387H56.5635C56.042 7.96387 55.5527 7.86426 55.0957 7.66504C54.6387 7.46582 54.2373 7.19629 53.8916 6.85645C53.5518 6.51074 53.2822 6.10938 53.083 5.65234C52.8838 5.18945 52.7842 4.69727 52.7842 4.17578Z" fill="#292929"/>
</svg>
